<svg width="23" height="23" viewBox="0 0 23 23" fill="none" xmlns="http://www.w3.org/2000/svg">
<path d="M11.5002 7.57292C9.33038 7.57292 7.57292 9.33038 7.57292 11.5002C7.57292 13.67 9.33038 15.4275 11.5002 15.4275C13.67 15.4275 15.4275 13.67 15.4275 11.5002C15.4275 9.33038 13.67 7.57292 11.5002 7.57292ZM20.2777 10.5184C19.826 6.4242 16.5762 3.17438 12.482 2.72274V1.68201C12.482 1.14201 12.0402 0.700195 11.5002 0.700195C10.9602 0.700195 10.5184 1.14201 10.5184 1.68201V2.72274C6.4242 3.17438 3.17438 6.4242 2.72274 10.5184H1.68201C1.14201 10.5184 0.700195 10.9602 0.700195 11.5002C0.700195 12.0402 1.14201 12.482 1.68201 12.482H2.72274C3.17438 16.5762 6.4242 19.826 10.5184 20.2777V21.3184C10.5184 21.8584 10.9602 22.3002 11.5002 22.3002C12.0402 22.3002 12.482 21.8584 12.482 21.3184V20.2777C16.5762 19.826 19.826 16.5762 20.2777 12.482H21.3184C21.8584 12.482 22.3002 12.0402 22.3002 11.5002C22.3002 10.9602 21.8584 10.5184 21.3184 10.5184H20.2777ZM11.5002 18.3729C7.70056 18.3729 4.62747 15.2998 4.62747 11.5002C4.62747 7.70056 7.70056 4.62747 11.5002 4.62747C15.2998 4.62747 18.3729 7.70056 18.3729 11.5002C18.3729 15.2998 15.2998 18.3729 11.5002 18.3729Z" fill="#8A8A8A"/>
</svg>
