<svg width="17" height="23" viewBox="0 0 17 23" fill="none" xmlns="http://www.w3.org/2000/svg">
<path fill-rule="evenodd" clip-rule="evenodd" d="M1.34824 8.99407C1.34824 12.3581 3.609 15.1942 6.69411 16.0658L8.69628 21.3501L10.6985 16.0656C13.3812 15.3074 15.4405 13.0637 15.9317 10.2792C15.4402 13.0633 13.3811 15.3066 10.6987 16.0648L8.69643 21.3493L6.69426 16.065C3.60915 15.1934 1.34839 12.3573 1.34839 8.99324C1.34839 8.55152 1.38737 8.1189 1.46207 7.69864C1.38727 8.11916 1.34824 8.55206 1.34824 8.99407ZM16.9918 8.99407C16.9918 12.6217 14.664 15.7035 11.4223 16.8312L9.58287 21.6861C9.44326 22.0545 9.09031 22.2982 8.69628 22.2982C8.30225 22.2982 7.9493 22.0545 7.80969 21.6861L5.97035 16.8315C2.72823 15.7039 0.400146 12.622 0.400146 8.99407C0.400146 4.41241 4.11431 0.698242 8.69597 0.698242C13.2776 0.698242 16.9918 4.41241 16.9918 8.99407Z" fill="#8A8A8A"/>
<path fill-rule="evenodd" clip-rule="evenodd" d="M10.8002 12.1064C11.0779 12.3841 11.5281 12.3841 11.8058 12.1064C12.0835 11.8287 12.0835 11.3785 11.8058 11.1008L9.81966 9.11463L11.8054 7.12891C12.0831 6.85122 12.0831 6.401 11.8054 6.12331C11.5277 5.84562 11.0775 5.84562 10.7998 6.12331L8.81406 8.10903L6.82834 6.12331C6.55065 5.84562 6.10042 5.84562 5.82273 6.12331C5.54504 6.401 5.54504 6.85122 5.82273 7.12891L7.80845 9.11463L5.82228 11.1008C5.54459 11.3785 5.54459 11.8287 5.82228 12.1064C6.09997 12.3841 6.5502 12.3841 6.82789 12.1064L8.81406 10.1202L10.8002 12.1064Z" fill="white"/>
</svg>
