<svg width="18" height="18" viewBox="0 0 18 18" fill="none" xmlns="http://www.w3.org/2000/svg">
<path d="M9.66746 15.1542C9.30005 15.4201 8.77954 15.4201 8.41213 15.1542L2.1355 10.6157C1.76808 10.3499 1.25779 10.3499 0.890376 10.6157C0.369875 10.9955 0.369875 11.7266 0.890376 12.1064L7.78957 17.1006C8.5244 17.6323 9.55519 17.6323 10.3002 17.1006L17.1994 12.1064C17.7199 11.7266 17.7199 10.9955 17.1994 10.6157L17.1892 10.6062C16.8218 10.3404 16.3115 10.3404 15.9441 10.6062L9.66746 15.1542ZM10.3104 12.2868L17.2096 7.29258C17.7301 6.9128 17.7301 6.17221 17.2096 5.79242L10.3104 0.798193C9.5756 0.266488 8.54481 0.266488 7.79978 0.798193L0.900582 5.80191C0.380081 6.1817 0.380081 6.92229 0.900582 7.30208L7.79978 12.2963C8.5346 12.828 9.5756 12.828 10.3104 12.2868Z" fill="#8A8A8A"/>
</svg>
