<svg width="19" height="18" viewBox="0 0 19 18" fill="none" xmlns="http://www.w3.org/2000/svg">
<path d="M10.17 1.66301C10.0427 1.40979 9.78344 1.25 9.5 1.25C9.21656 1.25 8.95733 1.40979 8.82997 1.66301L6.68841 5.92098L1.8935 6.60881C1.60936 6.64957 1.37341 6.84893 1.28579 7.12228C1.19817 7.39563 1.27426 7.69501 1.48176 7.89336L4.94225 11.2013L4.1262 15.8709C4.07715 16.1515 4.19134 16.4357 4.42092 16.6044C4.6505 16.7731 4.95582 16.7971 5.20898 16.6665L9.5 14.4518L13.791 16.6665C14.0442 16.7971 14.3495 16.7731 14.5791 16.6044C14.8087 16.4357 14.9228 16.1515 14.8738 15.8709L14.0577 11.2013L17.5182 7.89336C17.7257 7.69501 17.8018 7.39563 17.7142 7.12228C17.6266 6.84893 17.3906 6.64957 17.1065 6.60881L12.3116 5.92098L10.17 1.66301Z" stroke="#FFB323" stroke-width="1.5" stroke-linecap="round" stroke-linejoin="round"/>
</svg>
