<svg width="216" height="203" viewBox="0 0 216 203" fill="none" xmlns="http://www.w3.org/2000/svg">
<ellipse cx="116.162" cy="180.998" rx="82.2344" ry="21.5376" fill="url(#paint0_radial_284_5098)"/>
<path d="M60.7117 144.619C60.7117 144.619 50.5546 169.076 71.8383 177.096C93.1221 185.116 94.5542 162.157 94.5542 162.157L60.7117 144.619Z" fill="#FAF0D5" stroke="#1D0300" stroke-width="4.40657" stroke-miterlimit="10"/>
<path d="M164.355 144.619C164.355 144.619 174.512 169.076 153.228 177.096C131.966 185.094 130.512 162.157 130.512 162.157L164.355 144.619Z" fill="#FAF0D5" stroke="#1D0300" stroke-width="4.40657" stroke-miterlimit="10"/>
<path d="M28.7198 66.3838C26.825 68.8074 24.0048 71.8479 19.9287 74.3817C14.09 78.0171 10.4105 77.7087 6.88524 81.5424C3.62437 85.0677 3.02948 89.3861 2.69899 91.6996C1.00246 103.641 9.44105 113.182 10.2563 114.085C22.7709 127.811 50.1578 127.349 57.5388 116.553L47.8884 70.2836C41.4989 68.9837 35.1093 67.7058 28.7198 66.4058V66.3838Z" fill="#FAF0D5" stroke="#1D0300" stroke-width="4.40657" stroke-miterlimit="10"/>
<path d="M195.971 82.685C195.971 124.349 158.119 165.286 111.409 165.286C64.6993 165.286 26.8468 124.349 26.8468 82.685C26.8468 41.0209 64.6993 14.4492 111.409 14.4492C158.119 14.4492 195.971 41.0429 195.971 82.685Z" fill="#FD7000" stroke="#1D0300" stroke-width="4.40657" stroke-miterlimit="10"/>
<path d="M111.188 26.1508C111.188 26.1508 120.662 -1.4564 152.852 2.61968C152.852 2.61968 149.724 30.0947 111.188 26.1508Z" fill="#70B247" stroke="#1D0300" stroke-width="4.40657" stroke-miterlimit="10"/>
<path d="M117.975 23.9459C117.975 23.9459 126.458 14.0091 134.764 13.1719C134.764 13.1719 126.017 21.2579 117.975 23.9459Z" fill="#458343"/>
<path d="M120.773 18.6574L118.107 20.5522L116.895 24.5181C116.234 26.7214 113.986 28.0434 111.739 27.5586L105.306 26.1926L98.894 27.6908C96.6686 28.2196 94.3993 26.9417 93.6722 24.7605L92.3722 20.8166L89.6842 18.9878C87.1284 17.2472 87.0843 13.5017 89.5961 11.717L92.2621 9.82217L93.4739 5.85626C94.1349 3.65297 96.3822 2.331 98.6296 2.81572L105.063 4.18176L111.475 2.68353C113.7 2.15474 115.969 3.43264 116.697 5.6139L117.996 9.55778L120.684 11.3865C123.24 13.1271 123.284 16.8727 120.773 18.6574Z" fill="#36873A" stroke="#1D0300" stroke-width="4.40657" stroke-miterlimit="10"/>
<path d="M105.227 17.1768C109.535 17.1287 113.008 15.4325 112.985 13.3884C112.962 11.3442 109.452 9.72609 105.144 9.77421C100.837 9.82232 97.3638 11.5185 97.3867 13.5626C97.4095 15.6068 100.92 17.2249 105.227 17.1768Z" fill="#E3E339" stroke="#1D0300" stroke-width="2.20329" stroke-miterlimit="10"/>
<path d="M95.5449 54.8627C97.5283 54.8627 99.1362 52.8306 99.1362 50.3239C99.1362 47.8172 97.5283 45.7852 95.5449 45.7852C93.5614 45.7852 91.9535 47.8172 91.9535 50.3239C91.9535 52.8306 93.5614 54.8627 95.5449 54.8627Z" fill="#211815"/>
<path d="M111.607 54.8627C113.59 54.8627 115.198 52.8306 115.198 50.3239C115.198 47.8172 113.59 45.7852 111.607 45.7852C109.624 45.7852 108.016 47.8172 108.016 50.3239C108.016 52.8306 109.624 54.8627 111.607 54.8627Z" fill="#211815"/>
<path d="M94.6202 61.2725H112.533C111.938 67.1112 108.523 71.5618 104.513 72.1126C99.8861 72.7296 95.3914 68.0586 94.6423 61.2725H94.6202Z" fill="#AD2E2A" stroke="#211815" stroke-width="4.40657" stroke-linecap="round" stroke-linejoin="round"/>
<path d="M128.441 47.2174C129.536 47.2174 130.424 46.448 130.424 45.4988C130.424 44.5497 129.536 43.7803 128.441 43.7803C127.346 43.7803 126.458 44.5497 126.458 45.4988C126.458 46.448 127.346 47.2174 128.441 47.2174Z" fill="#F5CE41"/>
<path d="M135.491 50.5426C136.586 50.5426 137.474 49.7732 137.474 48.824C137.474 47.8749 136.586 47.1055 135.491 47.1055C134.395 47.1055 133.508 47.8749 133.508 48.824C133.508 49.7732 134.395 50.5426 135.491 50.5426Z" fill="#F5CE41"/>
<path d="M134.675 44.442C135.77 44.442 136.658 43.6726 136.658 42.7234C136.658 41.7743 135.77 41.0049 134.675 41.0049C133.58 41.0049 132.692 41.7743 132.692 42.7234C132.692 43.6726 133.58 44.442 134.675 44.442Z" fill="#F5CE41"/>
<path d="M166.755 55.2568C166.821 53.9128 167.041 52.8552 167.372 51.9299C169.289 46.4216 171.448 42.632 172.329 41.266C178.498 31.9461 172.131 22.9787 178.807 15.5756C181.87 12.1826 186.739 10.1776 191.145 10.5081C201.875 11.3013 207.516 25.7328 208.309 27.8039C214.632 44.2624 207.824 67.0885 193.393 73.0594C192.313 73.5 183.191 77.1134 175.304 72.1781C169.201 68.3443 166.424 61.0735 166.755 55.2568Z" fill="#FAF0D5" stroke="#1D0300" stroke-width="4.40657" stroke-miterlimit="10"/>
<defs>
<radialGradient id="paint0_radial_284_5098" cx="0" cy="0" r="1" gradientUnits="userSpaceOnUse" gradientTransform="translate(116.162 180.998) scale(82.2344 21.5376)">
<stop offset="0.225" stop-color="#737373" stop-opacity="0.5"/>
<stop offset="1" stop-color="#D9D9D9" stop-opacity="0"/>
</radialGradient>
</defs>
</svg>
