<svg width="87" height="144" viewBox="0 0 87 144" fill="none" xmlns="http://www.w3.org/2000/svg">
<path d="M29.9451 117.614C29.9451 125.308 24.0223 129.96 16.8561 130.425C15.6464 130.49 14.1386 129.731 14.0099 128.08C13.8777 126.265 15.0908 125.209 16.463 125.141C21.0779 124.779 23.6632 122.3 24.351 119.563C24.5136 118.869 24.2527 118.636 23.1414 118.636H16.3309C15.4804 118.636 14.2369 117.843 14.2369 116.028C14.2369 114.343 15.5448 113.42 16.463 113.42H26.1163C28.3085 113.42 29.9451 115.403 29.9451 117.614ZM28.7998 142.672C25.8215 142.672 22.0266 142.573 19.3092 141.616C18.3266 141.284 17.0831 140.262 16.7883 138.81C16.4596 137.323 16.4935 135.443 16.69 133.628C16.7544 132.77 17.4084 131.252 19.4718 131.317C21.4032 131.382 22.1554 132.968 22.091 133.99C21.9927 134.848 21.8945 135.607 21.9283 136.4C21.9283 136.796 22.1249 137.025 22.484 137.094C24.4154 137.456 26.9668 137.524 29.0302 137.524C31.7138 137.524 34.726 137.029 36.8504 136.502C38.1278 136.205 39.534 136.735 39.9609 138.416C40.2557 139.538 39.6017 140.959 38.4226 141.387C35.8035 142.344 31.8459 142.641 28.7998 142.675V142.672ZM39.4357 120.352H41.1062C42.2853 120.352 43.234 121.641 43.234 122.926C43.234 124.047 42.5801 125.568 41.2722 125.568H39.4391C39.4052 127.913 39.307 130.059 39.1782 131.512C39.0461 132.9 37.8026 134.055 36.1999 133.857C34.5633 133.659 33.6485 132.404 33.7129 131.085C34.0415 127.089 34.0077 119.894 33.7129 115.765C33.6485 114.477 34.499 113.222 36.1016 113.024C37.7043 112.826 38.9817 113.882 39.1782 115.304C39.3104 116.592 39.4086 117.627 39.4391 119.61L39.4357 120.352Z" fill="white" stroke="#FD7000" stroke-miterlimit="10"/>
<path d="M63.0018 124.314C63.3948 125.9 62.3817 126.823 61.4296 127.352C59.8269 128.244 56.5199 128.573 54.2938 128.573C52.0677 128.573 49.418 128.012 48.1745 127.482C47.2902 127.055 46.0467 126.194 45.6875 124.71C45.1657 122.335 45.2945 117.942 45.6875 115.697C45.9484 114.21 47.2258 113.417 48.1407 113.417H60.3148C61.4601 113.417 62.4088 114.606 62.4088 115.96C62.4088 117.081 61.721 118.602 60.3148 118.602H51.512C51.0546 118.602 50.9225 118.735 50.892 119.129C50.7937 120.383 50.7598 120.879 50.8276 122C50.8615 122.56 51.0885 122.892 51.6137 123.022C52.3659 123.186 53.3485 123.285 54.4937 123.285C56.4556 123.285 58.5529 122.823 59.566 122.56C61.0061 122.198 62.5443 122.461 63.0018 124.31V124.314ZM58.6817 143C52.1355 143 46.704 141.086 46.704 136.297C46.704 131.509 52.0372 129.595 58.6817 129.595C65.3261 129.595 70.6593 131.509 70.6593 136.297C70.6593 141.086 65.3566 143 58.6817 143ZM58.6478 134.352C53.6738 134.352 52.1998 135.012 52.1998 136.301C52.1998 137.589 53.6738 138.249 58.6478 138.249C63.6218 138.249 65.1601 137.589 65.1601 136.301C65.1601 135.012 63.6218 134.352 58.6478 134.352ZM70.2019 118.701H71.8723C73.0515 118.701 74.0002 119.99 74.0002 121.275C74.0002 122.396 73.3463 123.917 72.0384 123.917H70.1409C70.107 124.908 70.0427 125.93 69.9444 126.887C69.8123 128.275 68.5687 129.43 66.9661 129.232C65.3295 129.034 64.4147 127.78 64.4791 126.46C64.8077 122.465 64.7738 119.891 64.4791 115.765C64.4147 114.477 65.2651 113.222 66.8678 113.024C68.4705 112.826 69.7479 113.882 69.9444 115.304C70.0427 116.425 70.0765 116.164 70.1409 117.319L70.2019 118.701Z" fill="white" stroke="#FD7000" stroke-miterlimit="10"/>
<g clip-path="url(#clip0_129_636)">
<path d="M48.5607 0H30.1854C27.9749 0 26.1788 1.80879 26.1788 4.02238C26.1788 5.99002 27.5809 7.65534 29.51 7.97816L29.5919 7.99353H48.617C51.3956 7.99353 53.6164 10.3096 53.6164 13.1022C53.6164 15.8948 51.3547 18.1545 48.5761 18.1545H48.4277C48.0337 18.1443 41.0796 18.0623 35.6249 18.0623C29.8835 18.0623 29.1262 18.1545 28.8755 18.1904C28.3996 18.2519 27.9749 18.3749 27.6167 18.5645C26.8287 18.9795 26.1583 19.7327 25.6159 20.8037L23.2314 24.7389L19.7006 30.5701L16.001 36.6677L8.37659 49.2729L0.752196 61.8781L0.434939 62.4008L0.409354 62.4366L0.388885 62.4725C0.133033 63.0003 -0.00512695 63.5998 -0.00512695 64.2095C-0.00512695 66.2848 1.61186 68.0423 3.67403 68.2114V68.1961C4.08851 68.2166 5.40359 68.2166 10.3518 68.2166H55.8372C58.0478 68.2166 59.8438 66.4078 59.8438 64.189C59.8438 62.2317 58.4469 60.5663 56.5229 60.2333L56.441 60.2179H33.9567C34.8266 55.3347 37.2981 50.8409 40.9926 47.4693C44.9839 43.8312 50.1419 41.7457 55.5302 41.5971C55.74 41.5971 55.96 41.5868 56.1698 41.5868H56.2261C68.6349 41.6176 78.7308 51.7581 78.7308 64.2044C78.7308 76.6508 68.6093 86.8271 56.1698 86.8271C52.0455 86.8271 47.916 85.3258 47.8751 85.3155C43.239 83.4965 40.1893 80.4528 38.4443 78.2136C37.6921 77.1324 36.4641 76.4817 35.1439 76.4817C32.9231 76.4817 31.1116 78.2905 31.1116 80.5194C31.1116 81.1599 31.3112 81.7748 31.3317 81.8363C31.4749 82.2514 31.6745 82.6459 31.9355 82.9995C37.8098 90.6292 46.6726 95 56.267 95C73.2044 95 86.9795 81.1907 86.9795 64.2095C86.9795 47.2284 73.2044 33.4191 56.267 33.4191C48.6068 33.4191 41.2741 36.2629 35.6146 41.4229C30.2059 46.3522 26.7417 53.0032 25.8155 60.223H11.0375L24.7102 37.6516L28.4098 31.5539L31.6694 26.1788H49.359C56.2363 25.7586 61.6246 20.0146 61.6246 13.1073C61.6246 6.20011 55.7655 0 48.5607 0Z" fill="white"/>
<path d="M10.2291 0H16.9017C19.1122 0 20.9083 1.79342 20.9083 4.01214C20.9083 6.22573 19.1174 8.02427 16.9017 8.02427H10.2291C8.01849 8.02427 6.22241 6.23085 6.22241 4.01214C6.22241 1.79854 8.01338 0 10.2291 0Z" fill="white"/>
</g>
<defs>
<clipPath id="clip0_129_636">
<rect width="87" height="95" fill="white"/>
</clipPath>
</defs>
</svg>
